# File created by Blade
# Date/Time:  Tue Jan 27 20:12:02 2015
# Frame Rate: 120.000 fps
#------------------------------------------------------
:FULLY-SPECIFIED
:DEGREES
2018
root 8.650033 32.315341 -3.407212 0.349117 -8.487863 -3.070282
Spine 2.906157 10.728354 -2.864028
Head 18.249174 -10.007401 4.189420
LeftShoulder -16.393370 2.565133 29.591384
LeftArm -19.684761 -36.600970 -66.273750
LeftForeArm -5.789480 -0.000000 99.815298
LeftHand 16.914878 0.000000 7.742519
LeftHandThumb1 -26.253704 0.000000 33.147579
RightShoulder -19.941053 -23.763233 -22.901408
RightArm 9.707577 -39.448858 89.524455
RightForeArm -23.917886 -0.000000 103.251668
RightHand 18.480786 -0.000000 1.144331
RightHandThumb1 -24.326973 -0.000000 -32.862282
LeftUpLeg 7.600953 5.173840 -6.122510
LeftLeg -4.680266 -0.000000 0.000000
LeftFoot -16.528298 17.265535 -16.748734
LeftToeBase 24.379454 -0.000000 -0.000000
RightUpLeg 2.330619 -52.620297 -10.457053
RightLeg 55.133197 -0.000000 -0.000000
RightFoot -8.084053 -4.371325 40.048710
RightToeBase 10.505555 -0.000000 -0.000000
2019
root 8.638124 32.315107 -3.386890 0.268741 -8.573642 -3.070951
Spine 2.788550 10.815205 -2.909002
Head 18.488497 -9.973149 4.167007
LeftShoulder -16.473000 2.641237 29.535703
LeftArm -19.689251 -36.626666 -66.198992
LeftForeArm -5.714584 0.000000 100.000010
LeftHand 16.807022 -0.000000 7.835491
LeftHandThumb1 -26.253704 0.000000 33.147579
RightShoulder -19.981212 -23.843165 -22.841372
RightArm 9.808307 -39.534523 89.434061
RightForeArm -23.937939 -0.000000 103.212553
RightHand 18.487953 0.000000 1.107715
RightHandThumb1 -24.326973 -0.000000 -32.862282
LeftUpLeg 7.739327 5.183480 -6.100667
LeftLeg -4.692229 -0.000000 0.000000
LeftFoot -16.506163 17.303447 -16.662692
LeftToeBase 24.106725 -0.000000 -0.000000
RightUpLeg 2.440480 -52.606840 -10.884704
RightLeg 58.604804 -0.000000 -0.000000
RightFoot -7.679236 -3.908189 39.820162
RightToeBase 10.287010 -0.000000 -0.000000
2020
root 8.627451 32.314794 -3.369319 0.194084 -8.658028 -3.070737
Spine 2.670681 10.878099 -2.933796
Head 18.700370 -9.980955 4.107710
LeftShoulder -16.541754 2.768437 29.496445
LeftArm -19.668208 -36.739500 -66.196185
LeftForeArm -5.671278 0.000000 100.113643
LeftHand 16.714183 -0.000000 7.711939
LeftHandThumb1 -26.253704 0.000000 33.147579
RightShoulder -19.959068 -23.895979 -22.829110
RightArm 9.853536 -39.597967 89.397146
RightForeArm -23.925280 -0.000000 103.199112
RightHand 18.476760 -0.000000 1.165835
RightHandThumb1 -24.326973 -0.000000 -32.862282
LeftUpLeg 7.877320 5.209982 -6.077809
LeftLeg -4.747674 -0.000000 0.000000
LeftFoot -16.597812 17.340018 -16.802854
LeftToeBase 24.355466 -0.000000 -0.000000
RightUpLeg 2.563366 -52.536543 -11.293461
RightLeg 62.124749 -0.000000 -0.000000
RightFoot -7.292009 -3.832351 40.151776
RightToeBase 12.162792 -0.000000 -0.000000
2021
root 8.612761 32.315633 -3.353236 0.172743 -8.728768 -3.055969
Spine 2.487060 10.920651 -3.012186
Head 18.923374 -9.895424 4.077072
LeftShoulder -16.605689 2.843074 29.436757
LeftArm -19.752158 -36.845007 -66.030017
LeftForeArm -5.641725 -0.000000 100.259483
LeftHand 16.720825 -0.000000 7.447267
LeftHandThumb1 -26.253704 0.000000 33.147579
RightShoulder -19.929841 -23.916358 -22.803275
RightArm 9.823007 -39.663710 89.414163
RightForeArm -23.930790 0.000000 103.194745
RightHand 18.492115 -0.000000 1.211634
RightHandThumb1 -24.326973 -0.000000 -32.862282
LeftUpLeg 7.970279 5.135154 -6.072127
LeftLeg -4.794535 -0.000000 0.000000
LeftFoot -16.568913 17.433760 -16.763924
LeftToeBase 24.114767 -0.000000 -0.000000
RightUpLeg 2.652089 -52.526866 -11.661219
RightLeg 65.652851 -0.000000 -0.000000
RightFoot -6.922069 -4.162458 40.227337
RightToeBase 13.679456 -0.000000 -0.000000
